<svg width="400" height="400" viewBox="0 0 400 400" fill="none" xmlns="http://www.w3.org/2000/svg">
<rect width="400" height="400" fill="#E5E5E5"/>
<rect width="400" height="400" fill="#DBD4D3"/>
<path d="M185.32 196V172.4C185.32 170.96 185.827 169.733 186.84 168.72C187.853 167.707 189.08 167.2 190.52 167.2H208.88C210.32 167.2 211.547 167.707 212.56 168.72C213.6 169.733 214.12 170.96 214.12 172.4V196H209.76V185.92H189.64V196H185.32ZM189.64 181.6H209.76V173C209.76 172.413 209.653 172.027 209.44 171.84C209.253 171.627 208.867 171.52 208.28 171.52H191.12C190.533 171.52 190.133 171.627 189.92 171.84C189.733 172.027 189.64 172.413 189.64 173V181.6ZM223.878 196C222.438 196 221.211 195.493 220.198 194.48C219.184 193.467 218.678 192.24 218.678 190.8V172.4C218.678 170.96 219.184 169.733 220.198 168.72C221.211 167.707 222.438 167.2 223.878 167.2H247.398V171.52H224.478C223.891 171.52 223.491 171.627 223.278 171.84C223.091 172.027 222.998 172.413 222.998 173V190.2C222.998 190.787 223.091 191.187 223.278 191.4C223.491 191.587 223.891 191.68 224.478 191.68H247.398V196H223.878Z" fill="#800080"/>
<path d="M155.57 172.061C155.57 170.303 155.453 169.072 155.219 168.369C155.102 168.135 154.691 167.915 153.988 167.71C153.285 167.476 152.758 167.358 152.406 167.358C152.289 167.358 152.23 167.139 152.23 166.699C152.23 166.23 152.26 165.967 152.318 165.908C152.465 165.908 153.271 165.952 154.735 166.04C156.229 166.128 157.372 166.172 158.163 166.172C158.397 166.172 160.272 166.084 163.788 165.908C163.876 166.172 163.92 166.406 163.92 166.611C163.92 167.109 163.861 167.358 163.744 167.358C163.48 167.358 162.953 167.476 162.162 167.71C161.371 167.944 160.946 168.164 160.888 168.369C160.653 169.277 160.536 170.566 160.536 172.236V188.76C160.536 190.371 160.668 191.689 160.932 192.715C160.99 192.92 161.386 193.14 162.118 193.374C162.88 193.579 163.393 193.682 163.656 193.682C163.773 193.682 163.832 193.96 163.832 194.517C163.832 194.751 163.803 194.956 163.744 195.132C160.229 194.956 158.368 194.868 158.163 194.868C157.577 194.868 156.962 194.883 156.317 194.912C155.673 194.941 154.955 194.971 154.164 195C153.402 195.059 152.787 195.103 152.318 195.132C152.201 195.015 152.143 194.81 152.143 194.517C152.143 193.96 152.201 193.682 152.318 193.682C152.67 193.682 153.212 193.579 153.944 193.374C154.706 193.169 155.131 192.949 155.219 192.715C155.453 191.807 155.57 190.576 155.57 189.023V172.061Z" fill="#800080"/>
<path d="M171.5 190C172.123 190 172.577 189.723 172.831 189.504C173.072 189.297 173.212 189.079 173.282 188.959C173.421 188.718 173.491 188.491 173.523 188.38C173.595 188.128 173.642 187.848 173.676 187.608C173.746 187.099 173.804 186.414 173.85 185.628C173.944 184.039 174 181.873 174 179.5C174 177.127 173.944 174.961 173.85 173.372C173.804 172.586 173.746 171.901 173.676 171.392C173.642 171.152 173.595 170.872 173.523 170.62C173.491 170.509 173.421 170.282 173.282 170.041C173.212 169.921 173.072 169.703 172.831 169.496C172.577 169.277 172.123 169 171.5 169C170.877 169 170.423 169.277 170.169 169.496C169.928 169.703 169.788 169.921 169.718 170.041C169.579 170.282 169.509 170.509 169.477 170.62C169.405 170.872 169.358 171.152 169.324 171.392C169.254 171.901 169.196 172.586 169.15 173.372C169.056 174.961 169 177.127 169 179.5C169 181.873 169.056 184.039 169.15 185.628C169.196 186.414 169.254 187.099 169.324 187.608C169.358 187.848 169.405 188.128 169.477 188.38C169.509 188.491 169.579 188.718 169.718 188.959C169.788 189.079 169.928 189.297 170.169 189.504C170.423 189.723 170.877 190 171.5 190Z" fill="white" stroke="#800080" stroke-width="4"/>
<rect width="15" height="5.53834" rx="2.76917" transform="matrix(0.496299 0.868152 -0.703767 0.710431 175.898 189)" fill="#800080"/>
<path d="M81.2959 223H79.6084V210.203H81.2959V223ZM85.6729 213.49L85.7256 214.686C86.4521 213.771 87.4014 213.314 88.5732 213.314C90.583 213.314 91.5967 214.448 91.6143 216.716V223H89.9883V216.707C89.9824 216.021 89.8242 215.515 89.5137 215.187C89.209 214.858 88.7314 214.694 88.0811 214.694C87.5537 214.694 87.0908 214.835 86.6924 215.116C86.2939 215.397 85.9834 215.767 85.7607 216.224V223H84.1348V213.49H85.6729ZM96.2725 211.188V213.49H98.0479V214.747H96.2725V220.645C96.2725 221.025 96.3516 221.312 96.5098 221.506C96.668 221.693 96.9375 221.787 97.3184 221.787C97.5059 221.787 97.7637 221.752 98.0918 221.682V223C97.6641 223.117 97.248 223.176 96.8438 223.176C96.1172 223.176 95.5693 222.956 95.2002 222.517C94.8311 222.077 94.6465 221.453 94.6465 220.645V214.747H92.915V213.49H94.6465V211.188H96.2725ZM103.901 223.176C102.612 223.176 101.563 222.754 100.755 221.91C99.9463 221.061 99.542 219.927 99.542 218.509V218.21C99.542 217.267 99.7207 216.426 100.078 215.688C100.441 214.943 100.945 214.363 101.59 213.947C102.24 213.525 102.943 213.314 103.699 213.314C104.936 213.314 105.896 213.722 106.582 214.536C107.268 215.351 107.61 216.517 107.61 218.034V218.711H101.168C101.191 219.648 101.464 220.407 101.985 220.987C102.513 221.562 103.181 221.849 103.989 221.849C104.563 221.849 105.05 221.731 105.448 221.497C105.847 221.263 106.195 220.952 106.494 220.565L107.487 221.339C106.69 222.563 105.495 223.176 103.901 223.176ZM103.699 214.65C103.043 214.65 102.492 214.891 102.047 215.371C101.602 215.846 101.326 216.514 101.221 217.375H105.984V217.252C105.938 216.426 105.715 215.787 105.316 215.336C104.918 214.879 104.379 214.65 103.699 214.65ZM114.097 214.949C113.851 214.908 113.584 214.888 113.297 214.888C112.23 214.888 111.507 215.342 111.126 216.25V223H109.5V213.49H111.082L111.108 214.589C111.642 213.739 112.397 213.314 113.376 213.314C113.692 213.314 113.933 213.355 114.097 213.438V214.949ZM117.138 213.49L117.19 214.686C117.917 213.771 118.866 213.314 120.038 213.314C122.048 213.314 123.062 214.448 123.079 216.716V223H121.453V216.707C121.447 216.021 121.289 215.515 120.979 215.187C120.674 214.858 120.196 214.694 119.546 214.694C119.019 214.694 118.556 214.835 118.157 215.116C117.759 215.397 117.448 215.767 117.226 216.224V223H115.6V213.49H117.138ZM131.402 223C131.309 222.812 131.232 222.479 131.174 221.998C130.418 222.783 129.516 223.176 128.467 223.176C127.529 223.176 126.759 222.912 126.155 222.385C125.558 221.852 125.259 221.178 125.259 220.363C125.259 219.373 125.634 218.605 126.384 218.061C127.14 217.51 128.2 217.234 129.565 217.234H131.147V216.487C131.147 215.919 130.978 215.468 130.638 215.134C130.298 214.794 129.797 214.624 129.135 214.624C128.555 214.624 128.068 214.771 127.676 215.063C127.283 215.356 127.087 215.711 127.087 216.127H125.452C125.452 215.652 125.619 215.195 125.953 214.756C126.293 214.311 126.75 213.959 127.324 213.701C127.904 213.443 128.54 213.314 129.231 213.314C130.327 213.314 131.186 213.59 131.807 214.141C132.428 214.686 132.75 215.438 132.773 216.399V220.776C132.773 221.649 132.885 222.344 133.107 222.859V223H131.402ZM128.704 221.761C129.214 221.761 129.697 221.629 130.154 221.365C130.611 221.102 130.942 220.759 131.147 220.337V218.386H129.873C127.881 218.386 126.885 218.969 126.885 220.135C126.885 220.645 127.055 221.043 127.395 221.33C127.734 221.617 128.171 221.761 128.704 221.761ZM137.089 223H135.463V209.5H137.089V223ZM154.192 217.015C154.192 218.251 153.996 219.317 153.604 220.214C153.211 221.104 152.66 221.802 151.951 222.306L154.236 224.099L153.085 225.162L150.387 223.018C149.965 223.123 149.52 223.176 149.051 223.176C148.043 223.176 147.149 222.93 146.37 222.438C145.591 221.939 144.984 221.233 144.551 220.319C144.123 219.399 143.903 218.336 143.892 217.129V216.206C143.892 214.976 144.105 213.889 144.533 212.945C144.961 212.002 145.564 211.281 146.344 210.783C147.129 210.279 148.025 210.027 149.033 210.027C150.064 210.027 150.97 210.276 151.749 210.774C152.534 211.272 153.138 211.99 153.56 212.928C153.981 213.859 154.192 214.949 154.192 216.197V217.015ZM152.505 216.188C152.505 214.683 152.203 213.522 151.6 212.708C151.002 211.888 150.146 211.478 149.033 211.478C147.973 211.478 147.135 211.885 146.52 212.699C145.91 213.508 145.597 214.633 145.579 216.074V217.015C145.579 218.479 145.884 219.634 146.493 220.478C147.108 221.321 147.961 221.743 149.051 221.743C150.141 221.743 150.984 221.348 151.582 220.557C152.18 219.76 152.487 218.62 152.505 217.138V216.188ZM162.41 222.06C161.777 222.804 160.849 223.176 159.624 223.176C158.61 223.176 157.837 222.883 157.304 222.297C156.776 221.705 156.51 220.832 156.504 219.678V213.49H158.13V219.634C158.13 221.075 158.716 221.796 159.888 221.796C161.13 221.796 161.956 221.333 162.366 220.407V213.49H163.992V223H162.445L162.41 222.06ZM172.342 223C172.248 222.812 172.172 222.479 172.113 221.998C171.357 222.783 170.455 223.176 169.406 223.176C168.469 223.176 167.698 222.912 167.095 222.385C166.497 221.852 166.198 221.178 166.198 220.363C166.198 219.373 166.573 218.605 167.323 218.061C168.079 217.51 169.14 217.234 170.505 217.234H172.087V216.487C172.087 215.919 171.917 215.468 171.577 215.134C171.237 214.794 170.736 214.624 170.074 214.624C169.494 214.624 169.008 214.771 168.615 215.063C168.223 215.356 168.026 215.711 168.026 216.127H166.392C166.392 215.652 166.559 215.195 166.893 214.756C167.232 214.311 167.689 213.959 168.264 213.701C168.844 213.443 169.479 213.314 170.171 213.314C171.267 213.314 172.125 213.59 172.746 214.141C173.367 214.686 173.689 215.438 173.713 216.399V220.776C173.713 221.649 173.824 222.344 174.047 222.859V223H172.342ZM169.644 221.761C170.153 221.761 170.637 221.629 171.094 221.365C171.551 221.102 171.882 220.759 172.087 220.337V218.386H170.812C168.82 218.386 167.824 218.969 167.824 220.135C167.824 220.645 167.994 221.043 168.334 221.33C168.674 221.617 169.11 221.761 169.644 221.761ZM178.028 223H176.402V209.5H178.028V223ZM182.405 223H180.779V213.49H182.405V223ZM180.647 210.968C180.647 210.704 180.727 210.481 180.885 210.3C181.049 210.118 181.289 210.027 181.605 210.027C181.922 210.027 182.162 210.118 182.326 210.3C182.49 210.481 182.572 210.704 182.572 210.968C182.572 211.231 182.49 211.451 182.326 211.627C182.162 211.803 181.922 211.891 181.605 211.891C181.289 211.891 181.049 211.803 180.885 211.627C180.727 211.451 180.647 211.231 180.647 210.968ZM187.222 211.188V213.49H188.997V214.747H187.222V220.645C187.222 221.025 187.301 221.312 187.459 221.506C187.617 221.693 187.887 221.787 188.268 221.787C188.455 221.787 188.713 221.752 189.041 221.682V223C188.613 223.117 188.197 223.176 187.793 223.176C187.066 223.176 186.519 222.956 186.149 222.517C185.78 222.077 185.596 221.453 185.596 220.645V214.747H183.864V213.49H185.596V211.188H187.222ZM194.016 220.618L196.23 213.49H197.971L194.147 224.468C193.556 226.05 192.615 226.841 191.326 226.841L191.019 226.814L190.412 226.7V225.382L190.852 225.417C191.402 225.417 191.83 225.306 192.135 225.083C192.445 224.86 192.7 224.453 192.899 223.861L193.26 222.895L189.867 213.49H191.643L194.016 220.618ZM211.216 219.66H205.854L204.65 223H202.91L207.797 210.203H209.273L214.169 223H212.438L211.216 219.66ZM206.364 218.271H210.715L208.535 212.286L206.364 218.271ZM221.174 220.478C221.174 220.038 221.007 219.698 220.673 219.458C220.345 219.212 219.768 219.001 218.941 218.825C218.121 218.649 217.468 218.438 216.981 218.192C216.501 217.946 216.144 217.653 215.909 217.313C215.681 216.974 215.566 216.569 215.566 216.101C215.566 215.321 215.895 214.662 216.551 214.123C217.213 213.584 218.057 213.314 219.082 213.314C220.16 213.314 221.033 213.593 221.701 214.149C222.375 214.706 222.712 215.418 222.712 216.285H221.077C221.077 215.84 220.887 215.456 220.506 215.134C220.131 214.812 219.656 214.65 219.082 214.65C218.49 214.65 218.027 214.779 217.693 215.037C217.359 215.295 217.192 215.632 217.192 216.048C217.192 216.44 217.348 216.736 217.658 216.936C217.969 217.135 218.528 217.325 219.337 217.507C220.151 217.688 220.811 217.905 221.314 218.157C221.818 218.409 222.19 218.714 222.431 219.071C222.677 219.423 222.8 219.854 222.8 220.363C222.8 221.213 222.46 221.896 221.78 222.411C221.101 222.921 220.219 223.176 219.135 223.176C218.373 223.176 217.699 223.041 217.113 222.771C216.527 222.502 216.067 222.127 215.733 221.646C215.405 221.16 215.241 220.636 215.241 220.073H216.867C216.896 220.618 217.113 221.052 217.518 221.374C217.928 221.69 218.467 221.849 219.135 221.849C219.75 221.849 220.242 221.726 220.611 221.479C220.986 221.228 221.174 220.894 221.174 220.478ZM230.455 220.478C230.455 220.038 230.288 219.698 229.954 219.458C229.626 219.212 229.049 219.001 228.223 218.825C227.402 218.649 226.749 218.438 226.263 218.192C225.782 217.946 225.425 217.653 225.19 217.313C224.962 216.974 224.848 216.569 224.848 216.101C224.848 215.321 225.176 214.662 225.832 214.123C226.494 213.584 227.338 213.314 228.363 213.314C229.441 213.314 230.314 213.593 230.982 214.149C231.656 214.706 231.993 215.418 231.993 216.285H230.358C230.358 215.84 230.168 215.456 229.787 215.134C229.412 214.812 228.938 214.65 228.363 214.65C227.771 214.65 227.309 214.779 226.975 215.037C226.641 215.295 226.474 215.632 226.474 216.048C226.474 216.44 226.629 216.736 226.939 216.936C227.25 217.135 227.81 217.325 228.618 217.507C229.433 217.688 230.092 217.905 230.596 218.157C231.1 218.409 231.472 218.714 231.712 219.071C231.958 219.423 232.081 219.854 232.081 220.363C232.081 221.213 231.741 221.896 231.062 222.411C230.382 222.921 229.5 223.176 228.416 223.176C227.654 223.176 226.98 223.041 226.395 222.771C225.809 222.502 225.349 222.127 225.015 221.646C224.687 221.16 224.522 220.636 224.522 220.073H226.148C226.178 220.618 226.395 221.052 226.799 221.374C227.209 221.69 227.748 221.849 228.416 221.849C229.031 221.849 229.523 221.726 229.893 221.479C230.268 221.228 230.455 220.894 230.455 220.478ZM240.07 222.06C239.438 222.804 238.509 223.176 237.284 223.176C236.271 223.176 235.497 222.883 234.964 222.297C234.437 221.705 234.17 220.832 234.164 219.678V213.49H235.79V219.634C235.79 221.075 236.376 221.796 237.548 221.796C238.79 221.796 239.616 221.333 240.026 220.407V213.49H241.652V223H240.105L240.07 222.06ZM248.728 214.949C248.481 214.908 248.215 214.888 247.928 214.888C246.861 214.888 246.138 215.342 245.757 216.25V223H244.131V213.49H245.713L245.739 214.589C246.272 213.739 247.028 213.314 248.007 213.314C248.323 213.314 248.563 213.355 248.728 213.438V214.949ZM255.75 223C255.656 222.812 255.58 222.479 255.521 221.998C254.766 222.783 253.863 223.176 252.814 223.176C251.877 223.176 251.106 222.912 250.503 222.385C249.905 221.852 249.606 221.178 249.606 220.363C249.606 219.373 249.981 218.605 250.731 218.061C251.487 217.51 252.548 217.234 253.913 217.234H255.495V216.487C255.495 215.919 255.325 215.468 254.985 215.134C254.646 214.794 254.145 214.624 253.482 214.624C252.902 214.624 252.416 214.771 252.023 215.063C251.631 215.356 251.435 215.711 251.435 216.127H249.8C249.8 215.652 249.967 215.195 250.301 214.756C250.641 214.311 251.098 213.959 251.672 213.701C252.252 213.443 252.888 213.314 253.579 213.314C254.675 213.314 255.533 213.59 256.154 214.141C256.775 214.686 257.098 215.438 257.121 216.399V220.776C257.121 221.649 257.232 222.344 257.455 222.859V223H255.75ZM253.052 221.761C253.562 221.761 254.045 221.629 254.502 221.365C254.959 221.102 255.29 220.759 255.495 220.337V218.386H254.221C252.229 218.386 251.232 218.969 251.232 220.135C251.232 220.645 251.402 221.043 251.742 221.33C252.082 221.617 252.519 221.761 253.052 221.761ZM261.208 213.49L261.261 214.686C261.987 213.771 262.937 213.314 264.108 213.314C266.118 213.314 267.132 214.448 267.149 216.716V223H265.523V216.707C265.518 216.021 265.359 215.515 265.049 215.187C264.744 214.858 264.267 214.694 263.616 214.694C263.089 214.694 262.626 214.835 262.228 215.116C261.829 215.397 261.519 215.767 261.296 216.224V223H259.67V213.49H261.208ZM273.416 221.849C273.996 221.849 274.503 221.673 274.937 221.321C275.37 220.97 275.61 220.53 275.657 220.003H277.195C277.166 220.548 276.979 221.066 276.633 221.559C276.287 222.051 275.824 222.443 275.244 222.736C274.67 223.029 274.061 223.176 273.416 223.176C272.121 223.176 271.09 222.745 270.322 221.884C269.561 221.017 269.18 219.833 269.18 218.333V218.061C269.18 217.135 269.35 216.312 269.689 215.591C270.029 214.87 270.516 214.311 271.148 213.912C271.787 213.514 272.54 213.314 273.407 213.314C274.474 213.314 275.358 213.634 276.062 214.272C276.771 214.911 277.148 215.74 277.195 216.76H275.657C275.61 216.145 275.376 215.641 274.954 215.248C274.538 214.85 274.022 214.65 273.407 214.65C272.581 214.65 271.939 214.949 271.482 215.547C271.031 216.139 270.806 216.997 270.806 218.122V218.43C270.806 219.525 271.031 220.369 271.482 220.961C271.934 221.553 272.578 221.849 273.416 221.849ZM282.97 223.176C281.681 223.176 280.632 222.754 279.823 221.91C279.015 221.061 278.61 219.927 278.61 218.509V218.21C278.61 217.267 278.789 216.426 279.146 215.688C279.51 214.943 280.014 214.363 280.658 213.947C281.309 213.525 282.012 213.314 282.768 213.314C284.004 213.314 284.965 213.722 285.65 214.536C286.336 215.351 286.679 216.517 286.679 218.034V218.711H280.236C280.26 219.648 280.532 220.407 281.054 220.987C281.581 221.562 282.249 221.849 283.058 221.849C283.632 221.849 284.118 221.731 284.517 221.497C284.915 221.263 285.264 220.952 285.562 220.565L286.556 221.339C285.759 222.563 284.563 223.176 282.97 223.176ZM282.768 214.65C282.111 214.65 281.561 214.891 281.115 215.371C280.67 215.846 280.395 216.514 280.289 217.375H285.053V217.252C285.006 216.426 284.783 215.787 284.385 215.336C283.986 214.879 283.447 214.65 282.768 214.65ZM302.701 218.939C302.543 220.293 302.042 221.339 301.198 222.077C300.36 222.81 299.244 223.176 297.85 223.176C296.338 223.176 295.125 222.634 294.211 221.55C293.303 220.466 292.849 219.016 292.849 217.199V215.969C292.849 214.779 293.06 213.733 293.481 212.831C293.909 211.929 294.513 211.237 295.292 210.757C296.071 210.271 296.974 210.027 297.999 210.027C299.358 210.027 300.448 210.408 301.269 211.17C302.089 211.926 302.566 212.975 302.701 214.316H301.005C300.858 213.297 300.539 212.559 300.047 212.102C299.561 211.645 298.878 211.416 297.999 211.416C296.921 211.416 296.074 211.814 295.459 212.611C294.85 213.408 294.545 214.542 294.545 216.013V217.252C294.545 218.641 294.835 219.745 295.415 220.565C295.995 221.386 296.807 221.796 297.85 221.796C298.787 221.796 299.505 221.585 300.003 221.163C300.507 220.735 300.841 219.994 301.005 218.939H302.701ZM308.704 223.176C307.415 223.176 306.366 222.754 305.558 221.91C304.749 221.061 304.345 219.927 304.345 218.509V218.21C304.345 217.267 304.523 216.426 304.881 215.688C305.244 214.943 305.748 214.363 306.393 213.947C307.043 213.525 307.746 213.314 308.502 213.314C309.738 213.314 310.699 213.722 311.385 214.536C312.07 215.351 312.413 216.517 312.413 218.034V218.711H305.971C305.994 219.648 306.267 220.407 306.788 220.987C307.315 221.562 307.983 221.849 308.792 221.849C309.366 221.849 309.853 221.731 310.251 221.497C310.649 221.263 310.998 220.952 311.297 220.565L312.29 221.339C311.493 222.563 310.298 223.176 308.704 223.176ZM308.502 214.65C307.846 214.65 307.295 214.891 306.85 215.371C306.404 215.846 306.129 216.514 306.023 217.375H310.787V217.252C310.74 216.426 310.518 215.787 310.119 215.336C309.721 214.879 309.182 214.65 308.502 214.65ZM316.069 223H314.443V209.5H316.069V223ZM320.446 223H318.82V209.5H320.446V223Z" fill="#800080"/>
</svg>
